<svg width="153" height="20" viewBox="0 0 153 20" fill="none" xmlns="http://www.w3.org/2000/svg">
<g clip-path="url(#clip0_730_4593)">
<path d="M85.0613 10.9582C85.0613 7.90404 87.4524 5.4082 90.5626 5.4082C93.6728 5.4082 96.0848 7.89987 96.0848 10.9582C96.0848 14.0165 93.6937 16.529 90.5626 16.529C87.4315 16.529 85.0613 14.079 85.0613 10.9582ZM93.6728 10.9582C93.6728 9.04987 92.3685 7.57487 90.5626 7.57487C88.7567 7.57487 87.4733 9.04987 87.4733 10.9582C87.4733 12.8665 88.7567 14.3374 90.5626 14.3374C92.3685 14.3374 93.6728 12.929 93.6728 10.9582Z" fill="#4A3636"/>
<path d="M0.0795096 13.7963C-0.0500806 13.6463 -0.00827728 13.4921 0.121313 13.363L1.44648 12.1046C1.59697 11.9546 1.77254 11.9755 1.88123 12.1713C2.88033 13.8171 4.57754 14.3171 6.42525 14.3171C8.27295 14.3171 9.88238 13.8171 9.88238 12.0421C9.88238 10.4796 8.74951 9.96295 5.96959 9.61295C2.75074 9.17962 0.59787 7.96712 0.59787 5.17129C0.602051 2.65879 2.70894 0.946289 6.19115 0.946289C8.27713 0.946289 10.1917 1.55462 11.6925 3.20046C11.8221 3.32962 11.8011 3.48379 11.6716 3.61296L10.3673 4.82545C10.2168 4.97545 10.0621 4.95462 9.93254 4.80462C8.97525 3.67546 7.71279 3.15879 6.14935 3.15879C4.23476 3.15879 2.95139 3.80879 2.95139 5.08796C2.95139 6.36712 3.97139 6.92962 6.78057 7.27545C9.99943 7.62129 12.261 8.75045 12.261 11.8713C12.261 14.9921 9.89074 16.5296 6.43361 16.5296C3.84598 16.5296 1.51754 15.7296 0.0836899 13.8005L0.0795096 13.7963Z" fill="#4A3636"/>
<path d="M24.062 9.41654V15.8957C24.062 16.0915 23.9533 16.1999 23.7568 16.1999H22.0178C21.8213 16.1999 21.7126 16.0915 21.7126 15.8957V9.84987C21.7126 8.0707 20.9727 7.4207 19.6685 7.4207C18.2764 7.4207 16.993 8.37487 16.9721 10.5415V15.8957C16.9721 16.0915 16.8635 16.1999 16.667 16.1999H14.928C14.7315 16.1999 14.6228 16.0915 14.6228 15.8957V6.03737C14.6228 5.84154 14.7315 5.7332 14.928 5.7332H16.667C16.8635 5.7332 16.9721 5.84154 16.9721 6.03737V7.4457C17.6243 6.16654 18.8658 5.4082 20.3206 5.4082C22.2561 5.4082 24.062 6.40404 24.062 9.41654Z" fill="#4A3636"/>
<path d="M35.0603 6.03737C35.0603 5.84154 35.169 5.7332 35.3655 5.7332H37.1045C37.301 5.7332 37.4096 5.84154 37.4096 6.03737V15.8999C37.4096 16.0957 37.301 16.204 37.1045 16.204H35.3655C35.169 16.204 35.0603 16.0957 35.0603 15.8999V14.7957C34.2786 15.879 33.083 16.529 31.6032 16.529C28.8191 16.529 26.4697 14.1457 26.4697 10.9582C26.4697 7.7707 28.8191 5.4082 31.6032 5.4082C33.083 5.4082 34.2786 6.0582 35.0603 7.16237V6.0332V6.03737ZM35.0394 10.9582C35.0394 9.02904 33.7351 7.55404 31.9292 7.55404C30.1233 7.55404 28.84 9.02904 28.84 10.9582C28.84 12.8874 30.1233 14.3832 31.9292 14.3832C33.7351 14.3832 35.0394 12.929 35.0394 10.9582Z" fill="#4A3636"/>
<path d="M51 10.9579C51 14.1454 48.6297 16.5288 45.8665 16.5288C44.3867 16.5288 43.1911 15.8788 42.4094 14.7954V19.5871C42.4094 19.7829 42.3007 19.8913 42.1042 19.8913H40.3652C40.1687 19.8913 40.0601 19.7829 40.0601 19.5871V6.03711C40.0601 5.84128 40.1687 5.73294 40.3652 5.73294H42.1042C42.3007 5.73294 42.4094 5.84128 42.4094 6.03711V7.16628C43.1911 6.08294 44.3867 5.41211 45.8665 5.41211C48.6297 5.41211 51 7.81628 51 10.9621V10.9579ZM48.6297 10.9579C48.6297 9.02878 47.3255 7.55378 45.5196 7.55378C43.7137 7.55378 42.4303 9.04961 42.4303 10.9996C42.4303 12.9496 43.7137 14.3829 45.5196 14.3829C47.3255 14.3829 48.6297 12.9288 48.6297 10.9579Z" fill="#4A3636"/>
<path d="M82.687 9.41654V15.8957C82.687 16.0915 82.5783 16.1999 82.3818 16.1999H80.6428C80.4463 16.1999 80.3376 16.0915 80.3376 15.8957V9.84987C80.3376 8.0707 79.5977 7.4207 78.2935 7.4207C76.9014 7.4207 75.618 8.37487 75.5971 10.5415V15.8957C75.5971 16.0915 75.4885 16.1999 75.292 16.1999H73.553C73.3565 16.1999 73.2478 16.0915 73.2478 15.8957V6.03737C73.2478 5.84154 73.3565 5.7332 73.553 5.7332H75.292C75.4885 5.7332 75.5971 5.84154 75.5971 6.03737V7.4457C76.2493 6.16654 77.4908 5.4082 78.9456 5.4082C80.8811 5.4082 82.687 6.40404 82.687 9.41654Z" fill="#4A3636"/>
<path d="M114.482 9.41628V15.8954C114.482 16.0913 114.374 16.1996 114.177 16.1996H112.438C112.242 16.1996 112.133 16.0913 112.133 15.8954V9.72044C112.133 8.07461 111.393 7.42461 110.156 7.42461C108.918 7.42461 107.656 8.37878 107.635 10.5454V15.8996C107.635 16.0954 107.526 16.2038 107.33 16.2038H105.591C105.394 16.2038 105.286 16.0954 105.286 15.8996V9.72461C105.286 8.07878 104.546 7.42878 103.283 7.42878C102.021 7.42878 100.825 8.38294 100.804 10.5496V15.9038C100.804 16.0996 100.696 16.2079 100.499 16.2079H98.7602C98.5638 16.2079 98.4551 16.0996 98.4551 15.9038V6.03711C98.4551 5.84128 98.5638 5.73294 98.7602 5.73294H100.499C100.696 5.73294 100.804 5.84128 100.804 6.03711V7.38294C101.415 6.14961 102.61 5.41211 104.065 5.41211C105.415 5.41211 106.782 5.99544 107.347 7.59961C107.999 6.21211 109.324 5.41211 110.892 5.41211C112.677 5.41211 114.478 6.40794 114.478 9.42044L114.482 9.41628Z" fill="#4A3636"/>
<path d="M116.869 2.17884C116.869 1.39967 117.48 0.770508 118.303 0.770508C119.085 0.770508 119.716 1.39967 119.716 2.17884C119.716 2.95801 119.085 3.60801 118.303 3.60801C117.476 3.60801 116.869 2.97884 116.869 2.17884ZM119.152 16.2038H117.413C117.216 16.2038 117.108 16.0955 117.108 15.8997V6.03717C117.108 5.84134 117.216 5.73301 117.413 5.73301H119.152C119.348 5.73301 119.457 5.84134 119.457 6.03717V15.8997C119.457 16.0955 119.348 16.2038 119.152 16.2038Z" fill="#4A3636"/>
<path d="M122.095 10.9582C122.095 7.90404 124.398 5.4082 127.508 5.4082C129.205 5.4082 130.572 6.1457 131.684 7.2707C131.814 7.4207 131.814 7.55404 131.684 7.70404L130.577 8.85404C130.447 9.00404 130.271 9.00404 130.142 8.8332C129.49 8.07487 128.641 7.55404 127.533 7.55404C125.748 7.55404 124.469 9.04987 124.469 10.9582C124.469 12.8665 125.753 14.3832 127.533 14.3832C128.62 14.3832 129.49 13.8624 130.142 13.0832C130.271 12.9332 130.426 12.9082 130.556 13.0624L131.689 14.2332C131.818 14.3832 131.818 14.5165 131.689 14.6457C130.602 15.7957 129.21 16.5332 127.512 16.5332C124.402 16.5332 122.099 14.104 122.099 10.9624L122.095 10.9582Z" fill="#4A3636"/>
<path d="M143.565 9.41641V15.8956C143.565 16.0914 143.456 16.1997 143.26 16.1997H141.521C141.324 16.1997 141.216 16.0914 141.216 15.8956V9.84974C141.216 8.07057 140.476 7.42057 139.171 7.42057C137.867 7.42057 136.672 8.24557 136.496 10.1081V15.8956C136.496 16.0914 136.387 16.1997 136.191 16.1997H134.452C134.255 16.1997 134.147 16.0914 134.147 15.8956V0.683073C134.147 0.48724 134.255 0.378906 134.452 0.378906H136.191C136.387 0.378906 136.496 0.48724 136.496 0.683073V7.42474C137.127 6.14557 138.39 5.40807 139.824 5.40807C141.759 5.40807 143.565 6.40391 143.565 9.41641Z" fill="#4A3636"/>
<path d="M150.864 13.3001C150.555 13.4584 148.757 14.2126 148.757 13.1667C148.757 11.2709 148.757 6.03756 148.757 6.03756C148.757 5.8709 148.619 5.7334 148.452 5.7334H146.713C146.546 5.7334 146.408 5.8709 146.408 6.03756V14.1667C146.408 15.2917 147.323 16.2042 148.452 16.2042C148.452 16.2042 149.806 16.4834 151.813 15.4209C153.447 14.5584 152.264 12.5792 150.864 13.3001Z" fill="#4A3636"/>
<path d="M147.603 3.60872C148.569 3.60872 149.301 2.65455 148.908 1.60038C148.765 1.22122 148.435 0.929551 148.038 0.829551C146.997 0.562885 146.165 1.26705 146.165 2.17955C146.165 2.97955 146.776 3.60872 147.599 3.60872H147.603Z" fill="#4A3636"/>
<path d="M53.9722 9.58288C53.9722 5.33288 57.4962 1.86621 61.8646 1.86621C66.2331 1.86621 69.7153 5.33288 69.7153 9.58288C69.7153 14.112 66.2122 17.4704 61.8646 17.4704C57.5171 17.4704 53.9722 14.112 53.9722 9.58288ZM67.1695 9.60371C67.1695 6.61204 64.9288 4.24954 61.8646 4.24954C58.8004 4.24954 56.5138 6.61204 56.5138 9.60371C56.5138 12.812 58.7545 15.087 61.8646 15.087C64.9748 15.087 67.1695 12.812 67.1695 9.60371Z" fill="#4A3636"/>
<path d="M67.6627 0.0787937L63.2609 2.61213C62.8763 2.83296 62.8763 3.39129 63.2609 3.61213L67.6627 6.14546C68.0473 6.36629 68.5322 6.09129 68.5322 5.64546V0.578794C68.5322 0.13296 68.0515 -0.14204 67.6627 0.0787937Z" fill="#4A3636"/>
<path d="M56.0248 0.0787937L60.4267 2.61213C60.8113 2.83296 60.8113 3.39129 60.4267 3.61213L56.0248 6.14546C55.6402 6.36629 55.1553 6.09129 55.1553 5.64546V0.578794C55.1553 0.13296 55.636 -0.14204 56.0248 0.0787937Z" fill="#4A3636"/>
</g>
<defs>
<clipPath id="clip0_730_4593">
<rect width="153" height="20" fill="white"/>
</clipPath>
</defs>
</svg>
