<svg width="330" height="37" viewBox="0 0 330 37" fill="none" xmlns="http://www.w3.org/2000/svg">
<mask id="path-1-outside-1_47662_1487" maskUnits="userSpaceOnUse" x="0" y="0" width="330" height="37" fill="black">
<rect fill="white" width="330" height="37"/>
<path d="M1 18.2249C1 16.0052 1.41435 13.9039 2.24304 11.921C3.10132 9.93802 4.28516 8.17705 5.79456 6.63805C7.30396 5.09906 9.05013 3.90042 11.0331 3.04213C13.016 2.15425 15.1469 1.71031 17.4258 1.71031C19.6751 1.71031 21.7912 2.15425 23.7742 3.04213C25.7571 3.90042 27.5181 5.09906 29.0571 6.63805C30.5961 8.17705 31.7947 9.93802 32.653 11.921C33.5113 13.9039 33.9404 16.0052 33.9404 18.2249C33.9404 20.5038 33.5113 22.6347 32.653 24.6177C31.7947 26.6006 30.5961 28.3468 29.0571 29.8562C27.5477 31.3656 25.7867 32.5494 23.7742 33.4077C21.7912 34.2364 19.6751 34.6507 17.4258 34.6507C15.1469 34.6507 13.016 34.2364 11.0331 33.4077C9.05013 32.579 7.30396 31.4248 5.79456 29.945C4.28516 28.4356 3.10132 26.6894 2.24304 24.7065C1.41435 22.6939 1 20.5334 1 18.2249ZM5.88335 18.2249C5.88335 19.8823 6.17931 21.4361 6.77123 22.8863C7.39275 24.3069 8.23624 25.5647 9.3017 26.6598C10.3672 27.7253 11.5954 28.5688 12.9864 29.1903C14.407 29.7822 15.9312 30.0781 17.559 30.0781C19.1572 30.0781 20.6518 29.7822 22.0428 29.1903C23.4338 28.5688 24.6473 27.7253 25.6831 26.6598C26.7486 25.5647 27.5773 24.3069 28.1692 22.8863C28.7611 21.4361 29.0571 19.8823 29.0571 18.2249C29.0571 16.5675 28.7463 15.0285 28.1248 13.6079C27.5329 12.1577 26.7042 10.8851 25.6387 9.79004C24.6029 8.69498 23.3746 7.8367 21.954 7.21518C20.563 6.59366 19.0684 6.2829 17.4702 6.2829C15.8128 6.2829 14.2886 6.59366 12.8976 7.21518C11.5066 7.8367 10.2784 8.69498 9.21291 9.79004C8.14745 10.8851 7.31876 12.1577 6.72684 13.6079C6.16452 15.0581 5.88335 16.5971 5.88335 18.2249Z"/>
<path d="M81.5507 35.4054L56.7344 10.7667L58.1106 11.2106L58.2438 34.2956H53.4492V1.0444H53.6712L78.1767 25.7275L77.0669 25.4168L76.9781 2.06546H81.6839V35.4054H81.5507Z"/>
<path d="M101.209 18.2249C101.209 16.0052 101.624 13.9039 102.452 11.921C103.311 9.93802 104.494 8.17705 106.004 6.63805C107.513 5.09906 109.259 3.90042 111.242 3.04213C113.225 2.15425 115.356 1.71031 117.635 1.71031C119.884 1.71031 122.001 2.15425 123.983 3.04213C125.966 3.90042 127.727 5.09906 129.266 6.63805C130.805 8.17705 132.004 9.93802 132.862 11.921C133.721 13.9039 134.15 16.0052 134.15 18.2249C134.15 20.5038 133.721 22.6347 132.862 24.6177C132.004 26.6006 130.805 28.3468 129.266 29.8562C127.757 31.3656 125.996 32.5494 123.983 33.4077C122.001 34.2364 119.884 34.6507 117.635 34.6507C115.356 34.6507 113.225 34.2364 111.242 33.4077C109.259 32.579 107.513 31.4248 106.004 29.945C104.494 28.4356 103.311 26.6894 102.452 24.7065C101.624 22.6939 101.209 20.5334 101.209 18.2249ZM106.093 18.2249C106.093 19.8823 106.389 21.4361 106.981 22.8863C107.602 24.3069 108.446 25.5647 109.511 26.6598C110.576 27.7253 111.805 28.5688 113.196 29.1903C114.616 29.7822 116.141 30.0781 117.768 30.0781C119.367 30.0781 120.861 29.7822 122.252 29.1903C123.643 28.5688 124.857 27.7253 125.892 26.6598C126.958 25.5647 127.787 24.3069 128.379 22.8863C128.97 21.4361 129.266 19.8823 129.266 18.2249C129.266 16.5675 128.956 15.0285 128.334 13.6079C127.742 12.1577 126.913 10.8851 125.848 9.79004C124.812 8.69498 123.584 7.8367 122.163 7.21518C120.772 6.59366 119.278 6.2829 117.68 6.2829C116.022 6.2829 114.498 6.59366 113.107 7.21518C111.716 7.8367 110.488 8.69498 109.422 9.79004C108.357 10.8851 107.528 12.1577 106.936 13.6079C106.374 15.0581 106.093 16.5971 106.093 18.2249Z"/>
<path d="M153.659 34.2956V1H153.703L170.839 25.2836L168.797 24.8396L185.844 1H185.933V34.2956H181.227V11.699L181.538 14.1407L169.64 30.966H169.552L157.432 14.1407L158.231 11.921V34.2956H153.659Z"/>
<path d="M207.405 2.06546H212.155V34.2956H207.405V2.06546Z"/>
<path d="M257.373 31.8539C256.899 32.1795 256.189 32.579 255.242 33.0526C254.324 33.4965 253.229 33.8812 251.956 34.2068C250.713 34.5324 249.337 34.6803 247.828 34.6507C245.312 34.6211 243.048 34.1772 241.035 33.3189C239.053 32.4606 237.366 31.2916 235.975 29.8118C234.584 28.3024 233.503 26.5858 232.734 24.6621C231.994 22.7087 231.624 20.637 231.624 18.4469C231.624 16.02 232.009 13.8003 232.778 11.7878C233.548 9.74564 234.643 7.96988 236.063 6.46048C237.514 4.95108 239.201 3.78203 241.124 2.95334C243.078 2.12465 245.209 1.71031 247.517 1.71031C249.5 1.71031 251.291 1.97667 252.889 2.5094C254.487 3.04213 255.834 3.66365 256.929 4.37395L255.064 8.81337C254.206 8.22144 253.14 7.65912 251.868 7.12639C250.625 6.56406 249.234 6.2829 247.695 6.2829C246.185 6.2829 244.75 6.59366 243.388 7.21518C242.057 7.8071 240.873 8.65059 239.837 9.74564C238.831 10.8111 238.031 12.0689 237.44 13.5191C236.848 14.9398 236.552 16.4936 236.552 18.1805C236.552 19.8971 236.818 21.4805 237.351 22.9307C237.884 24.3809 238.638 25.6387 239.615 26.7042C240.621 27.7697 241.82 28.5983 243.211 29.1903C244.602 29.7822 246.17 30.0781 247.917 30.0781C249.574 30.0781 251.024 29.8266 252.267 29.3235C253.54 28.8203 254.576 28.2432 255.375 27.5921L257.373 31.8539Z"/>
<path d="M302.757 2.06546V34.2956H298.007V20.4002H281.67V34.2956H276.92V2.06546H281.67V15.872H298.007V2.06546H302.757Z"/>
<path d="M324.25 2.06546H329V34.2956H324.25V2.06546Z"/>
</mask>
<path d="M1 18.2249C1 16.0052 1.41435 13.9039 2.24304 11.921C3.10132 9.93802 4.28516 8.17705 5.79456 6.63805C7.30396 5.09906 9.05013 3.90042 11.0331 3.04213C13.016 2.15425 15.1469 1.71031 17.4258 1.71031C19.6751 1.71031 21.7912 2.15425 23.7742 3.04213C25.7571 3.90042 27.5181 5.09906 29.0571 6.63805C30.5961 8.17705 31.7947 9.93802 32.653 11.921C33.5113 13.9039 33.9404 16.0052 33.9404 18.2249C33.9404 20.5038 33.5113 22.6347 32.653 24.6177C31.7947 26.6006 30.5961 28.3468 29.0571 29.8562C27.5477 31.3656 25.7867 32.5494 23.7742 33.4077C21.7912 34.2364 19.6751 34.6507 17.4258 34.6507C15.1469 34.6507 13.016 34.2364 11.0331 33.4077C9.05013 32.579 7.30396 31.4248 5.79456 29.945C4.28516 28.4356 3.10132 26.6894 2.24304 24.7065C1.41435 22.6939 1 20.5334 1 18.2249ZM5.88335 18.2249C5.88335 19.8823 6.17931 21.4361 6.77123 22.8863C7.39275 24.3069 8.23624 25.5647 9.3017 26.6598C10.3672 27.7253 11.5954 28.5688 12.9864 29.1903C14.407 29.7822 15.9312 30.0781 17.559 30.0781C19.1572 30.0781 20.6518 29.7822 22.0428 29.1903C23.4338 28.5688 24.6473 27.7253 25.6831 26.6598C26.7486 25.5647 27.5773 24.3069 28.1692 22.8863C28.7611 21.4361 29.0571 19.8823 29.0571 18.2249C29.0571 16.5675 28.7463 15.0285 28.1248 13.6079C27.5329 12.1577 26.7042 10.8851 25.6387 9.79004C24.6029 8.69498 23.3746 7.8367 21.954 7.21518C20.563 6.59366 19.0684 6.2829 17.4702 6.2829C15.8128 6.2829 14.2886 6.59366 12.8976 7.21518C11.5066 7.8367 10.2784 8.69498 9.21291 9.79004C8.14745 10.8851 7.31876 12.1577 6.72684 13.6079C6.16452 15.0581 5.88335 16.5971 5.88335 18.2249Z" stroke="#9ED0E0" stroke-width="1.84975" mask="url(#path-1-outside-1_47662_1487)"/>
<path d="M81.5507 35.4054L56.7344 10.7667L58.1106 11.2106L58.2438 34.2956H53.4492V1.0444H53.6712L78.1767 25.7275L77.0669 25.4168L76.9781 2.06546H81.6839V35.4054H81.5507Z" stroke="#9ED0E0" stroke-width="1.84975" mask="url(#path-1-outside-1_47662_1487)"/>
<path d="M101.209 18.2249C101.209 16.0052 101.624 13.9039 102.452 11.921C103.311 9.93802 104.494 8.17705 106.004 6.63805C107.513 5.09906 109.259 3.90042 111.242 3.04213C113.225 2.15425 115.356 1.71031 117.635 1.71031C119.884 1.71031 122.001 2.15425 123.983 3.04213C125.966 3.90042 127.727 5.09906 129.266 6.63805C130.805 8.17705 132.004 9.93802 132.862 11.921C133.721 13.9039 134.15 16.0052 134.15 18.2249C134.15 20.5038 133.721 22.6347 132.862 24.6177C132.004 26.6006 130.805 28.3468 129.266 29.8562C127.757 31.3656 125.996 32.5494 123.983 33.4077C122.001 34.2364 119.884 34.6507 117.635 34.6507C115.356 34.6507 113.225 34.2364 111.242 33.4077C109.259 32.579 107.513 31.4248 106.004 29.945C104.494 28.4356 103.311 26.6894 102.452 24.7065C101.624 22.6939 101.209 20.5334 101.209 18.2249ZM106.093 18.2249C106.093 19.8823 106.389 21.4361 106.981 22.8863C107.602 24.3069 108.446 25.5647 109.511 26.6598C110.576 27.7253 111.805 28.5688 113.196 29.1903C114.616 29.7822 116.141 30.0781 117.768 30.0781C119.367 30.0781 120.861 29.7822 122.252 29.1903C123.643 28.5688 124.857 27.7253 125.892 26.6598C126.958 25.5647 127.787 24.3069 128.379 22.8863C128.97 21.4361 129.266 19.8823 129.266 18.2249C129.266 16.5675 128.956 15.0285 128.334 13.6079C127.742 12.1577 126.913 10.8851 125.848 9.79004C124.812 8.69498 123.584 7.8367 122.163 7.21518C120.772 6.59366 119.278 6.2829 117.68 6.2829C116.022 6.2829 114.498 6.59366 113.107 7.21518C111.716 7.8367 110.488 8.69498 109.422 9.79004C108.357 10.8851 107.528 12.1577 106.936 13.6079C106.374 15.0581 106.093 16.5971 106.093 18.2249Z" stroke="#9ED0E0" stroke-width="1.84975" mask="url(#path-1-outside-1_47662_1487)"/>
<path d="M153.659 34.2956V1H153.703L170.839 25.2836L168.797 24.8396L185.844 1H185.933V34.2956H181.227V11.699L181.538 14.1407L169.64 30.966H169.552L157.432 14.1407L158.231 11.921V34.2956H153.659Z" stroke="#9ED0E0" stroke-width="1.84975" mask="url(#path-1-outside-1_47662_1487)"/>
<path d="M207.405 2.06546H212.155V34.2956H207.405V2.06546Z" stroke="#9ED0E0" stroke-width="1.84975" mask="url(#path-1-outside-1_47662_1487)"/>
<path d="M257.373 31.8539C256.899 32.1795 256.189 32.579 255.242 33.0526C254.324 33.4965 253.229 33.8812 251.956 34.2068C250.713 34.5324 249.337 34.6803 247.828 34.6507C245.312 34.6211 243.048 34.1772 241.035 33.3189C239.053 32.4606 237.366 31.2916 235.975 29.8118C234.584 28.3024 233.503 26.5858 232.734 24.6621C231.994 22.7087 231.624 20.637 231.624 18.4469C231.624 16.02 232.009 13.8003 232.778 11.7878C233.548 9.74564 234.643 7.96988 236.063 6.46048C237.514 4.95108 239.201 3.78203 241.124 2.95334C243.078 2.12465 245.209 1.71031 247.517 1.71031C249.5 1.71031 251.291 1.97667 252.889 2.5094C254.487 3.04213 255.834 3.66365 256.929 4.37395L255.064 8.81337C254.206 8.22144 253.14 7.65912 251.868 7.12639C250.625 6.56406 249.234 6.2829 247.695 6.2829C246.185 6.2829 244.75 6.59366 243.388 7.21518C242.057 7.8071 240.873 8.65059 239.837 9.74564C238.831 10.8111 238.031 12.0689 237.44 13.5191C236.848 14.9398 236.552 16.4936 236.552 18.1805C236.552 19.8971 236.818 21.4805 237.351 22.9307C237.884 24.3809 238.638 25.6387 239.615 26.7042C240.621 27.7697 241.82 28.5983 243.211 29.1903C244.602 29.7822 246.17 30.0781 247.917 30.0781C249.574 30.0781 251.024 29.8266 252.267 29.3235C253.54 28.8203 254.576 28.2432 255.375 27.5921L257.373 31.8539Z" stroke="#9ED0E0" stroke-width="1.84975" mask="url(#path-1-outside-1_47662_1487)"/>
<path d="M302.757 2.06546V34.2956H298.007V20.4002H281.67V34.2956H276.92V2.06546H281.67V15.872H298.007V2.06546H302.757Z" stroke="#9ED0E0" stroke-width="1.84975" mask="url(#path-1-outside-1_47662_1487)"/>
<path d="M324.25 2.06546H329V34.2956H324.25V2.06546Z" stroke="#9ED0E0" stroke-width="1.84975" mask="url(#path-1-outside-1_47662_1487)"/>
</svg>
