<svg width="755" height="83" viewBox="0 0 755 83" fill="none" xmlns="http://www.w3.org/2000/svg">
<mask id="path-1-inside-1_47662_1490" fill="white">
<path fill-rule="evenodd" clip-rule="evenodd" d="M2.98365 26.0571L2.9879 26.0473C5.03713 21.3128 7.86686 17.1034 11.4717 13.4278C15.0819 9.74688 19.2625 6.87653 24.003 4.82321C28.7727 2.68919 33.8899 1.62766 39.3351 1.62766C44.7159 1.62766 49.7988 2.69051 54.5657 4.82329C59.303 6.87526 63.5129 9.74216 67.1869 13.4161C70.8634 17.0927 73.7318 21.3059 75.784 26.0473C77.8453 30.8096 78.8737 35.8546 78.8737 41.1662C78.8737 46.6071 77.8478 51.7206 75.784 56.4886C73.7315 61.2307 70.8616 65.4127 67.1809 69.024C63.5664 72.637 59.3507 75.4686 54.5474 77.517L54.5418 77.5194L54.5361 77.5218C49.7755 79.5113 44.7032 80.5013 39.3351 80.5013C33.9023 80.5013 28.7957 79.5124 24.0324 77.5218C19.2934 75.5413 15.1103 72.7775 11.4952 69.2333L11.4892 69.2274L11.4833 69.2215C7.87157 65.6098 5.03846 61.4296 2.9879 56.6921L2.98188 56.6782L2.97611 56.6642C0.987819 51.8355 0 46.664 0 41.1662C0 35.8629 0.991177 30.8248 2.97952 26.067L2.98365 26.0571ZM53.8823 6.375C49.3384 4.34043 44.4894 3.32314 39.3351 3.32314C34.113 3.32314 29.2301 4.34043 24.6862 6.375C20.1423 8.34176 16.141 11.0884 12.6822 14.615C9.2234 18.1416 6.51064 22.1769 4.54388 26.7207C2.64495 31.2646 1.69548 36.0798 1.69548 41.1662C1.69548 46.4561 2.64495 51.4069 4.54388 56.0186C6.51064 60.5625 9.2234 64.5638 12.6822 68.0226C16.141 71.4136 20.1423 74.0585 24.6862 75.9574C29.2301 77.8564 34.113 78.8058 39.3351 78.8058C44.4894 78.8058 49.3384 77.8564 53.8823 75.9574C58.494 73.9907 62.5292 71.2779 65.988 67.8191C69.5146 64.3604 72.2613 60.359 74.228 55.8152C76.1948 51.2713 77.1782 46.3883 77.1782 41.1662C77.1782 36.0798 76.1948 31.2646 74.228 26.7207C72.2613 22.1769 69.5146 18.1416 65.988 14.615C62.4614 11.0884 58.4262 8.34176 53.8823 6.375ZM57.0414 59.3123C59.3313 56.9589 61.1111 54.2589 62.3858 51.2019C63.653 48.0952 64.2925 44.7553 64.2925 41.1662C64.2925 37.5859 63.6225 34.2926 62.2984 31.266L62.2899 31.2467L62.282 31.2272C61.0058 28.1005 59.2255 25.3694 56.9397 23.0201L56.9314 23.0116L56.9232 23.0029C54.7102 20.6635 52.0851 18.8266 49.0319 17.4908L49.0258 17.4882L49.0198 17.4855C46.0605 16.1633 42.8726 15.4967 39.4368 15.4967C35.8561 15.4967 32.6018 16.1668 29.6504 17.4855C26.6596 18.8218 24.0226 20.6643 21.7305 23.0201C19.4481 25.3659 17.6697 28.0924 16.3939 31.2133C15.1882 34.3279 14.5811 37.6412 14.5811 41.1662C14.5811 44.7498 15.2187 48.0849 16.482 51.1875C17.8234 54.2476 19.6372 56.9498 21.9259 59.3041C24.2124 61.5886 26.8452 63.3981 29.8341 64.7364C32.8654 65.9963 36.1286 66.6323 39.6403 66.6323C43.0823 66.6323 46.2754 65.9971 49.2373 64.739C52.2276 63.4008 54.8249 61.5922 57.0414 59.3123ZM49.9149 66.2932C46.7274 67.6496 43.3025 68.3278 39.6403 68.3278C35.9102 68.3278 32.4175 67.6496 29.1622 66.2932C25.9747 64.869 23.1602 62.9362 20.7187 60.4947C18.2773 57.9854 16.3444 55.1031 14.9202 51.8477C13.5638 48.5246 12.8856 44.9641 12.8856 41.1662C12.8856 37.4362 13.5299 33.9096 14.8185 30.5864C16.1749 27.2633 18.0738 24.3471 20.5153 21.8378C22.9568 19.3285 25.7713 17.3617 28.9588 15.9375C32.1463 14.5133 35.639 13.8012 39.4368 13.8012C43.0991 13.8012 46.5239 14.5133 49.7114 15.9375C52.9668 17.3617 55.7812 19.3285 58.1549 21.8378C60.5964 24.3471 62.4953 27.2633 63.8517 30.5864C65.2759 33.8418 65.988 37.3684 65.988 41.1662C65.988 44.9641 65.3098 48.5246 63.9534 51.8477C62.5971 55.1031 60.6981 57.9854 58.2566 60.4947C55.883 62.9362 53.1024 64.869 49.9149 66.2932ZM185.578 82.2307L134.295 31.315L134.574 79.6875H120.187V0.101734H123.097L174.284 51.6595L174.097 2.44149H188.277V82.2307H185.578ZM175.995 55.7896L122.391 1.79721H121.882V77.992H132.869L132.576 27.219L186.277 80.5352H186.582V4.13697H175.799L175.995 55.7896ZM232.612 26.0571L232.617 26.0473C234.666 21.3128 237.496 17.1034 241.1 13.4278C244.711 9.74692 248.891 6.8766 253.632 4.82327C258.401 2.68919 263.518 1.62766 268.964 1.62766C274.345 1.62766 279.428 2.69052 284.194 4.82331C288.932 6.87528 293.142 9.74215 296.816 13.4161C300.492 17.0927 303.361 21.3059 305.413 26.0473C307.474 30.8096 308.502 35.8546 308.502 41.1662C308.502 46.6071 307.477 51.7206 305.413 56.4886C303.36 61.2308 300.49 65.4127 296.81 69.0241C293.195 72.6371 288.979 75.4685 284.176 77.517L284.17 77.5194L284.165 77.5218C279.404 79.5113 274.332 80.5013 268.964 80.5013C263.531 80.5013 258.424 79.5124 253.661 77.5218C248.922 75.5413 244.739 72.7775 241.124 69.2333L241.118 69.2274L241.112 69.2215C237.5 65.6098 234.667 61.4296 232.617 56.6921L232.611 56.6782L232.605 56.6642C230.617 51.8355 229.629 46.664 229.629 41.1662C229.629 35.8629 230.62 30.8248 232.608 26.067L232.612 26.0571ZM295.617 67.8191C299.143 64.3604 301.89 60.359 303.857 55.8152C305.824 51.2713 306.807 46.3883 306.807 41.1662C306.807 36.0798 305.824 31.2646 303.857 26.7207C301.89 22.1769 299.143 18.1416 295.617 14.615C292.09 11.0884 288.055 8.34176 283.511 6.375C278.967 4.34043 274.118 3.32314 268.964 3.32314C263.742 3.32314 258.859 4.34043 254.315 6.375C249.771 8.34176 245.77 11.0884 242.311 14.615C238.852 18.1416 236.139 22.1769 234.173 26.7207C232.274 31.2646 231.324 36.0798 231.324 41.1662C231.324 46.4561 232.274 51.4069 234.173 56.0186C236.139 60.5625 238.852 64.5638 242.311 68.0226C245.77 71.4136 249.771 74.0585 254.315 75.9574C258.859 77.8564 263.742 78.8058 268.964 78.8058C274.118 78.8058 278.967 77.8564 283.511 75.9574C288.123 73.9907 292.158 71.2779 295.617 67.8191ZM286.67 59.3123C288.961 56.9583 290.741 54.2576 292.015 51.1997C293.282 48.0937 293.921 44.7545 293.921 41.1662C293.921 37.5859 293.251 34.2926 291.927 31.266L291.919 31.2467L291.911 31.2272C290.634 28.1005 288.854 25.3694 286.568 23.0201L286.56 23.0116L286.552 23.0029C284.339 20.6635 281.714 18.8266 278.661 17.4908L278.655 17.4882L278.648 17.4855C275.689 16.1633 272.501 15.4967 269.066 15.4967C265.485 15.4967 262.23 16.1668 259.279 17.4855C256.288 18.8218 253.651 20.6643 251.359 23.0201C249.077 25.3658 247.299 28.0923 246.023 31.2131C244.817 34.3277 244.21 37.6411 244.21 41.1662C244.21 44.7498 244.847 48.0849 246.111 51.1874C247.452 54.2474 249.266 56.9495 251.554 59.3037C253.841 61.5883 256.474 63.3979 259.463 64.7363C262.494 65.9963 265.757 66.6323 269.269 66.6323C272.711 66.6323 275.904 65.9971 278.866 64.739C281.856 63.4009 284.454 61.5922 286.67 59.3123ZM279.544 66.2932C276.356 67.6496 272.931 68.3278 269.269 68.3278C265.539 68.3278 262.046 67.6496 258.791 66.2932C255.603 64.869 252.789 62.9362 250.347 60.4947C247.906 57.9854 245.973 55.1031 244.549 51.8477C243.193 48.5246 242.514 44.9641 242.514 41.1662C242.514 37.4362 243.159 33.9096 244.447 30.5864C245.804 27.2633 247.703 24.3471 250.144 21.8378C252.586 19.3285 255.4 17.3617 258.587 15.9375C261.775 14.5133 265.268 13.8012 269.066 13.8012C272.728 13.8012 276.153 14.5133 279.34 15.9375C282.595 17.3617 285.41 19.3285 287.784 21.8378C290.225 24.3471 292.124 27.2633 293.48 30.5864C294.905 33.8418 295.617 37.3684 295.617 41.1662C295.617 44.9641 294.939 48.5246 293.582 51.8477C292.226 55.1031 290.327 57.9854 287.885 60.4947C285.512 62.9362 282.731 64.869 279.544 66.2932ZM349.816 79.6875V0H352.491L388.204 50.6077L424.392 0H427.163V79.6875H412.989V38.1485L389.011 72.0578H387.062L363.685 39.604V79.6875H349.816ZM361.989 34.3493L387.93 70.3624H388.133L414.685 32.8142V77.992H425.468V1.69548H425.264L388.195 53.5354L351.613 1.69548H351.511V77.992H361.989V34.3493ZM472.975 2.44149H487.251V79.6875H472.975V2.44149ZM591.316 72.9794L590.131 73.7941C588.949 74.607 587.239 75.5639 585.046 76.6601L585.036 76.665L585.026 76.6698C582.799 77.7477 580.179 78.6638 577.184 79.4301C574.164 80.2205 570.856 80.5709 567.272 80.5011C561.321 80.4304 555.912 79.3786 551.07 77.3136L551.061 77.31C546.319 75.2573 542.258 72.4488 538.902 68.8787L538.896 68.8726L538.891 68.8664C535.562 65.2544 532.976 61.1446 531.137 56.5466L531.131 56.5321L531.126 56.5175C529.354 51.8403 528.473 46.8886 528.473 41.6749C528.473 35.9357 529.383 30.6435 531.227 25.8177C533.065 20.94 535.69 16.6764 539.106 13.0461L539.112 13.0397L539.118 13.0334C542.598 9.41154 546.652 6.6027 551.267 4.6144L551.276 4.61069C555.979 2.61537 561.09 1.62766 566.587 1.62766C571.282 1.62766 575.57 2.25825 579.432 3.54579C583.194 4.79953 586.417 6.27985 589.076 8.00442L590.266 8.77607L584.636 22.1801L582.918 20.9955C581.073 19.723 578.742 18.4871 575.902 17.298L575.88 17.2887L575.858 17.2788C573.255 16.1016 570.31 15.4967 566.994 15.4967C563.776 15.4967 560.727 16.1574 557.83 17.4799L557.823 17.4834L557.815 17.4868C554.975 18.749 552.446 20.5484 550.221 22.9002C548.068 25.1793 546.347 27.8809 545.064 31.0237L545.062 31.0294L545.06 31.0351C543.797 34.0647 543.156 37.401 543.156 41.0645C543.156 44.8206 543.738 48.2486 544.883 51.3648C546.031 54.4904 547.646 57.1754 549.72 59.4408C551.859 61.703 554.407 63.4668 557.383 64.7331C560.331 65.9874 563.694 66.6323 567.503 66.6323C571.132 66.6323 574.231 66.0811 576.836 65.0268L576.842 65.0242L576.849 65.0217C579.653 63.9131 581.862 62.6694 583.522 61.3166L585.206 59.9443L591.316 72.9794ZM548.479 60.5964C546.241 58.1549 544.512 55.2726 543.291 51.9495C542.07 48.6263 541.46 44.998 541.46 41.0645C541.46 37.1988 542.138 33.6383 543.495 30.383C544.851 27.0598 546.682 24.1775 548.988 21.736C551.362 19.2267 554.074 17.2939 557.126 15.9375C560.246 14.5133 563.535 13.8012 566.994 13.8012C570.521 13.8012 573.708 14.4455 576.556 15.734C578.796 16.6713 580.755 17.6486 582.434 18.6659C582.942 18.9735 583.424 19.2848 583.881 19.5997L588.154 9.42686C585.644 7.7992 582.558 6.375 578.896 5.15426C575.234 3.93351 571.131 3.32314 566.587 3.32314C561.297 3.32314 556.414 4.27261 551.938 6.17155C547.53 8.07048 543.664 10.7493 540.341 14.2081C537.086 17.6669 534.576 21.736 532.813 26.4156C531.05 31.0273 530.168 36.1137 530.168 41.6749C530.168 46.6935 531.016 51.4408 532.711 55.9169C534.475 60.3251 536.95 64.2586 540.138 67.7174C543.325 71.1084 547.191 73.7872 551.735 75.754C556.346 77.7207 561.535 78.738 567.299 78.8058C570.758 78.8737 573.912 78.5346 576.76 77.7886C579.676 77.0425 582.185 76.1609 584.288 75.1436C586.458 74.0585 588.086 73.1429 589.171 72.3969L584.593 62.631C584.16 62.9837 583.697 63.327 583.203 63.6608C581.609 64.7389 579.699 65.7181 577.472 66.5984C574.624 67.7513 571.3 68.3278 567.503 68.3278C563.501 68.3278 559.907 67.6496 556.719 66.2932C553.532 64.9368 550.785 63.0379 548.479 60.5964ZM694.865 2.44149V79.6875H680.589V47.8464H646.544V79.6875H632.268V2.44149H646.544V34.0791H680.589V2.44149H694.865ZM682.284 35.7746H644.848V4.13697H633.963V77.992H644.848V46.1509H682.284V77.992H693.169V4.13697H682.284V35.7746ZM740.724 2.44149H755V79.6875H740.724V2.44149ZM474.67 4.13697V77.992H485.555V4.13697H474.67ZM742.419 4.13697V77.992H753.305V4.13697H742.419Z"/>
</mask>
<path fill-rule="evenodd" clip-rule="evenodd" d="M2.98365 26.0571L2.9879 26.0473C5.03713 21.3128 7.86686 17.1034 11.4717 13.4278C15.0819 9.74688 19.2625 6.87653 24.003 4.82321C28.7727 2.68919 33.8899 1.62766 39.3351 1.62766C44.7159 1.62766 49.7988 2.69051 54.5657 4.82329C59.303 6.87526 63.5129 9.74216 67.1869 13.4161C70.8634 17.0927 73.7318 21.3059 75.784 26.0473C77.8453 30.8096 78.8737 35.8546 78.8737 41.1662C78.8737 46.6071 77.8478 51.7206 75.784 56.4886C73.7315 61.2307 70.8616 65.4127 67.1809 69.024C63.5664 72.637 59.3507 75.4686 54.5474 77.517L54.5418 77.5194L54.5361 77.5218C49.7755 79.5113 44.7032 80.5013 39.3351 80.5013C33.9023 80.5013 28.7957 79.5124 24.0324 77.5218C19.2934 75.5413 15.1103 72.7775 11.4952 69.2333L11.4892 69.2274L11.4833 69.2215C7.87157 65.6098 5.03846 61.4296 2.9879 56.6921L2.98188 56.6782L2.97611 56.6642C0.987819 51.8355 0 46.664 0 41.1662C0 35.8629 0.991177 30.8248 2.97952 26.067L2.98365 26.0571ZM53.8823 6.375C49.3384 4.34043 44.4894 3.32314 39.3351 3.32314C34.113 3.32314 29.2301 4.34043 24.6862 6.375C20.1423 8.34176 16.141 11.0884 12.6822 14.615C9.2234 18.1416 6.51064 22.1769 4.54388 26.7207C2.64495 31.2646 1.69548 36.0798 1.69548 41.1662C1.69548 46.4561 2.64495 51.4069 4.54388 56.0186C6.51064 60.5625 9.2234 64.5638 12.6822 68.0226C16.141 71.4136 20.1423 74.0585 24.6862 75.9574C29.2301 77.8564 34.113 78.8058 39.3351 78.8058C44.4894 78.8058 49.3384 77.8564 53.8823 75.9574C58.494 73.9907 62.5292 71.2779 65.988 67.8191C69.5146 64.3604 72.2613 60.359 74.228 55.8152C76.1948 51.2713 77.1782 46.3883 77.1782 41.1662C77.1782 36.0798 76.1948 31.2646 74.228 26.7207C72.2613 22.1769 69.5146 18.1416 65.988 14.615C62.4614 11.0884 58.4262 8.34176 53.8823 6.375ZM57.0414 59.3123C59.3313 56.9589 61.1111 54.2589 62.3858 51.2019C63.653 48.0952 64.2925 44.7553 64.2925 41.1662C64.2925 37.5859 63.6225 34.2926 62.2984 31.266L62.2899 31.2467L62.282 31.2272C61.0058 28.1005 59.2255 25.3694 56.9397 23.0201L56.9314 23.0116L56.9232 23.0029C54.7102 20.6635 52.0851 18.8266 49.0319 17.4908L49.0258 17.4882L49.0198 17.4855C46.0605 16.1633 42.8726 15.4967 39.4368 15.4967C35.8561 15.4967 32.6018 16.1668 29.6504 17.4855C26.6596 18.8218 24.0226 20.6643 21.7305 23.0201C19.4481 25.3659 17.6697 28.0924 16.3939 31.2133C15.1882 34.3279 14.5811 37.6412 14.5811 41.1662C14.5811 44.7498 15.2187 48.0849 16.482 51.1875C17.8234 54.2476 19.6372 56.9498 21.9259 59.3041C24.2124 61.5886 26.8452 63.3981 29.8341 64.7364C32.8654 65.9963 36.1286 66.6323 39.6403 66.6323C43.0823 66.6323 46.2754 65.9971 49.2373 64.739C52.2276 63.4008 54.8249 61.5922 57.0414 59.3123ZM49.9149 66.2932C46.7274 67.6496 43.3025 68.3278 39.6403 68.3278C35.9102 68.3278 32.4175 67.6496 29.1622 66.2932C25.9747 64.869 23.1602 62.9362 20.7187 60.4947C18.2773 57.9854 16.3444 55.1031 14.9202 51.8477C13.5638 48.5246 12.8856 44.9641 12.8856 41.1662C12.8856 37.4362 13.5299 33.9096 14.8185 30.5864C16.1749 27.2633 18.0738 24.3471 20.5153 21.8378C22.9568 19.3285 25.7713 17.3617 28.9588 15.9375C32.1463 14.5133 35.639 13.8012 39.4368 13.8012C43.0991 13.8012 46.5239 14.5133 49.7114 15.9375C52.9668 17.3617 55.7812 19.3285 58.1549 21.8378C60.5964 24.3471 62.4953 27.2633 63.8517 30.5864C65.2759 33.8418 65.988 37.3684 65.988 41.1662C65.988 44.9641 65.3098 48.5246 63.9534 51.8477C62.5971 55.1031 60.6981 57.9854 58.2566 60.4947C55.883 62.9362 53.1024 64.869 49.9149 66.2932ZM185.578 82.2307L134.295 31.315L134.574 79.6875H120.187V0.101734H123.097L174.284 51.6595L174.097 2.44149H188.277V82.2307H185.578ZM175.995 55.7896L122.391 1.79721H121.882V77.992H132.869L132.576 27.219L186.277 80.5352H186.582V4.13697H175.799L175.995 55.7896ZM232.612 26.0571L232.617 26.0473C234.666 21.3128 237.496 17.1034 241.1 13.4278C244.711 9.74692 248.891 6.8766 253.632 4.82327C258.401 2.68919 263.518 1.62766 268.964 1.62766C274.345 1.62766 279.428 2.69052 284.194 4.82331C288.932 6.87528 293.142 9.74215 296.816 13.4161C300.492 17.0927 303.361 21.3059 305.413 26.0473C307.474 30.8096 308.502 35.8546 308.502 41.1662C308.502 46.6071 307.477 51.7206 305.413 56.4886C303.36 61.2308 300.49 65.4127 296.81 69.0241C293.195 72.6371 288.979 75.4685 284.176 77.517L284.17 77.5194L284.165 77.5218C279.404 79.5113 274.332 80.5013 268.964 80.5013C263.531 80.5013 258.424 79.5124 253.661 77.5218C248.922 75.5413 244.739 72.7775 241.124 69.2333L241.118 69.2274L241.112 69.2215C237.5 65.6098 234.667 61.4296 232.617 56.6921L232.611 56.6782L232.605 56.6642C230.617 51.8355 229.629 46.664 229.629 41.1662C229.629 35.8629 230.62 30.8248 232.608 26.067L232.612 26.0571ZM295.617 67.8191C299.143 64.3604 301.89 60.359 303.857 55.8152C305.824 51.2713 306.807 46.3883 306.807 41.1662C306.807 36.0798 305.824 31.2646 303.857 26.7207C301.89 22.1769 299.143 18.1416 295.617 14.615C292.09 11.0884 288.055 8.34176 283.511 6.375C278.967 4.34043 274.118 3.32314 268.964 3.32314C263.742 3.32314 258.859 4.34043 254.315 6.375C249.771 8.34176 245.77 11.0884 242.311 14.615C238.852 18.1416 236.139 22.1769 234.173 26.7207C232.274 31.2646 231.324 36.0798 231.324 41.1662C231.324 46.4561 232.274 51.4069 234.173 56.0186C236.139 60.5625 238.852 64.5638 242.311 68.0226C245.77 71.4136 249.771 74.0585 254.315 75.9574C258.859 77.8564 263.742 78.8058 268.964 78.8058C274.118 78.8058 278.967 77.8564 283.511 75.9574C288.123 73.9907 292.158 71.2779 295.617 67.8191ZM286.67 59.3123C288.961 56.9583 290.741 54.2576 292.015 51.1997C293.282 48.0937 293.921 44.7545 293.921 41.1662C293.921 37.5859 293.251 34.2926 291.927 31.266L291.919 31.2467L291.911 31.2272C290.634 28.1005 288.854 25.3694 286.568 23.0201L286.56 23.0116L286.552 23.0029C284.339 20.6635 281.714 18.8266 278.661 17.4908L278.655 17.4882L278.648 17.4855C275.689 16.1633 272.501 15.4967 269.066 15.4967C265.485 15.4967 262.23 16.1668 259.279 17.4855C256.288 18.8218 253.651 20.6643 251.359 23.0201C249.077 25.3658 247.299 28.0923 246.023 31.2131C244.817 34.3277 244.21 37.6411 244.21 41.1662C244.21 44.7498 244.847 48.0849 246.111 51.1874C247.452 54.2474 249.266 56.9495 251.554 59.3037C253.841 61.5883 256.474 63.3979 259.463 64.7363C262.494 65.9963 265.757 66.6323 269.269 66.6323C272.711 66.6323 275.904 65.9971 278.866 64.739C281.856 63.4009 284.454 61.5922 286.67 59.3123ZM279.544 66.2932C276.356 67.6496 272.931 68.3278 269.269 68.3278C265.539 68.3278 262.046 67.6496 258.791 66.2932C255.603 64.869 252.789 62.9362 250.347 60.4947C247.906 57.9854 245.973 55.1031 244.549 51.8477C243.193 48.5246 242.514 44.9641 242.514 41.1662C242.514 37.4362 243.159 33.9096 244.447 30.5864C245.804 27.2633 247.703 24.3471 250.144 21.8378C252.586 19.3285 255.4 17.3617 258.587 15.9375C261.775 14.5133 265.268 13.8012 269.066 13.8012C272.728 13.8012 276.153 14.5133 279.34 15.9375C282.595 17.3617 285.41 19.3285 287.784 21.8378C290.225 24.3471 292.124 27.2633 293.48 30.5864C294.905 33.8418 295.617 37.3684 295.617 41.1662C295.617 44.9641 294.939 48.5246 293.582 51.8477C292.226 55.1031 290.327 57.9854 287.885 60.4947C285.512 62.9362 282.731 64.869 279.544 66.2932ZM349.816 79.6875V0H352.491L388.204 50.6077L424.392 0H427.163V79.6875H412.989V38.1485L389.011 72.0578H387.062L363.685 39.604V79.6875H349.816ZM361.989 34.3493L387.93 70.3624H388.133L414.685 32.8142V77.992H425.468V1.69548H425.264L388.195 53.5354L351.613 1.69548H351.511V77.992H361.989V34.3493ZM472.975 2.44149H487.251V79.6875H472.975V2.44149ZM591.316 72.9794L590.131 73.7941C588.949 74.607 587.239 75.5639 585.046 76.6601L585.036 76.665L585.026 76.6698C582.799 77.7477 580.179 78.6638 577.184 79.4301C574.164 80.2205 570.856 80.5709 567.272 80.5011C561.321 80.4304 555.912 79.3786 551.07 77.3136L551.061 77.31C546.319 75.2573 542.258 72.4488 538.902 68.8787L538.896 68.8726L538.891 68.8664C535.562 65.2544 532.976 61.1446 531.137 56.5466L531.131 56.5321L531.126 56.5175C529.354 51.8403 528.473 46.8886 528.473 41.6749C528.473 35.9357 529.383 30.6435 531.227 25.8177C533.065 20.94 535.69 16.6764 539.106 13.0461L539.112 13.0397L539.118 13.0334C542.598 9.41154 546.652 6.6027 551.267 4.6144L551.276 4.61069C555.979 2.61537 561.09 1.62766 566.587 1.62766C571.282 1.62766 575.57 2.25825 579.432 3.54579C583.194 4.79953 586.417 6.27985 589.076 8.00442L590.266 8.77607L584.636 22.1801L582.918 20.9955C581.073 19.723 578.742 18.4871 575.902 17.298L575.88 17.2887L575.858 17.2788C573.255 16.1016 570.31 15.4967 566.994 15.4967C563.776 15.4967 560.727 16.1574 557.83 17.4799L557.823 17.4834L557.815 17.4868C554.975 18.749 552.446 20.5484 550.221 22.9002C548.068 25.1793 546.347 27.8809 545.064 31.0237L545.062 31.0294L545.06 31.0351C543.797 34.0647 543.156 37.401 543.156 41.0645C543.156 44.8206 543.738 48.2486 544.883 51.3648C546.031 54.4904 547.646 57.1754 549.72 59.4408C551.859 61.703 554.407 63.4668 557.383 64.7331C560.331 65.9874 563.694 66.6323 567.503 66.6323C571.132 66.6323 574.231 66.0811 576.836 65.0268L576.842 65.0242L576.849 65.0217C579.653 63.9131 581.862 62.6694 583.522 61.3166L585.206 59.9443L591.316 72.9794ZM548.479 60.5964C546.241 58.1549 544.512 55.2726 543.291 51.9495C542.07 48.6263 541.46 44.998 541.46 41.0645C541.46 37.1988 542.138 33.6383 543.495 30.383C544.851 27.0598 546.682 24.1775 548.988 21.736C551.362 19.2267 554.074 17.2939 557.126 15.9375C560.246 14.5133 563.535 13.8012 566.994 13.8012C570.521 13.8012 573.708 14.4455 576.556 15.734C578.796 16.6713 580.755 17.6486 582.434 18.6659C582.942 18.9735 583.424 19.2848 583.881 19.5997L588.154 9.42686C585.644 7.7992 582.558 6.375 578.896 5.15426C575.234 3.93351 571.131 3.32314 566.587 3.32314C561.297 3.32314 556.414 4.27261 551.938 6.17155C547.53 8.07048 543.664 10.7493 540.341 14.2081C537.086 17.6669 534.576 21.736 532.813 26.4156C531.05 31.0273 530.168 36.1137 530.168 41.6749C530.168 46.6935 531.016 51.4408 532.711 55.9169C534.475 60.3251 536.95 64.2586 540.138 67.7174C543.325 71.1084 547.191 73.7872 551.735 75.754C556.346 77.7207 561.535 78.738 567.299 78.8058C570.758 78.8737 573.912 78.5346 576.76 77.7886C579.676 77.0425 582.185 76.1609 584.288 75.1436C586.458 74.0585 588.086 73.1429 589.171 72.3969L584.593 62.631C584.16 62.9837 583.697 63.327 583.203 63.6608C581.609 64.7389 579.699 65.7181 577.472 66.5984C574.624 67.7513 571.3 68.3278 567.503 68.3278C563.501 68.3278 559.907 67.6496 556.719 66.2932C553.532 64.9368 550.785 63.0379 548.479 60.5964ZM694.865 2.44149V79.6875H680.589V47.8464H646.544V79.6875H632.268V2.44149H646.544V34.0791H680.589V2.44149H694.865ZM682.284 35.7746H644.848V4.13697H633.963V77.992H644.848V46.1509H682.284V77.992H693.169V4.13697H682.284V35.7746ZM740.724 2.44149H755V79.6875H740.724V2.44149ZM474.67 4.13697V77.992H485.555V4.13697H474.67ZM742.419 4.13697V77.992H753.305V4.13697H742.419Z" stroke="#9ED0E0" stroke-width="1.69548" mask="url(#path-1-inside-1_47662_1490)"/>
</svg>
